<?xml version="1.0" encoding="UTF-8"?>
<svg width="32px" height="39px" viewBox="0 0 32 39" version="1.1" xmlns="http://www.w3.org/2000/svg" xmlns:xlink="http://www.w3.org/1999/xlink">
    <!-- Generator: Sketch 54.1 (76490) - https://sketchapp.com -->
    <title>Group 16</title>
    <desc>Created with Sketch.</desc>
    <defs>
        <polygon id="path-1" points="0 0.834498834 31.2666389 0.834498834 31.2666389 38.4615385 0 38.4615385"></polygon>
    </defs>
    <g id="Page-1" stroke="none" stroke-width="1" fill="none" fill-rule="evenodd">
        <g id="Group-16">
            <mask id="mask-2" fill="white">
                <use xlink:href="#path-1"></use>
            </mask>
            <g id="Clip-15"></g>
            <path d="M27.5584,8.47785548 C27.5584,9.97552448 27.2429714,11.6270396 26.6121143,13.4324009 C25.5138286,16.6946387 23.4406857,18.8997669 20.3926857,20.04662 C18.8429714,20.6072261 17.1126857,20.9009324 15.2052571,20.9289044 C15.2052571,20.9428904 14.5869714,20.9498834 13.3515429,20.9498834 L11.4989714,20.9289044 C10.1264,20.9289044 9.31725714,21.6013986 9.06925714,22.9452214 C9.04297143,23.0571096 8.45897143,26.7657343 7.31954286,34.0734266 C7.30582857,34.2132867 7.22354286,34.2832168 7.07268571,34.2832168 L0.999542857,34.2832168 C0.696685714,34.2832168 0.4464,34.1678322 0.247542857,33.9370629 C0.0486857143,33.7062937 -0.0313142857,33.4370629 0.0109714286,33.1282051 L4.78697143,2.24125874 C4.85668571,1.83566434 5.04525714,1.5 5.35268571,1.23426573 C5.6624,0.968531469 6.01554286,0.834498834 6.41325714,0.834498834 L18.7252571,0.834498834 C19.1926857,0.834498834 19.8624,0.926573427 20.7332571,1.10839161 C21.6052571,1.29020979 22.3698286,1.51398601 23.0292571,1.77972028 C24.4978286,2.35431235 25.6201143,3.21445221 26.3949714,4.36247086 C27.1709714,5.51048951 27.5584,6.88228438 27.5584,8.47785548 M31.1001143,14.3997669 C31.3469714,15.5745921 31.3195429,17.002331 31.0166857,18.6818182 C29.8235429,24.8974359 25.9458286,28.004662 19.3858286,28.004662 L18.4795429,28.004662 C18.1355429,28.004662 17.8338286,28.1212121 17.5732571,28.3519814 C17.3115429,28.5827506 17.1481143,28.8799534 17.0784,29.2435897 L16.9972571,29.6433566 L15.8646857,36.9079254 L15.8224,37.2226107 C15.7549714,37.5874126 15.5858286,37.8834499 15.3184,38.1153846 C15.0509714,38.3461538 14.7458286,38.4615385 14.4018286,38.4615385 L9.23497143,38.4615385 C8.94697143,38.4615385 8.72068571,38.3566434 8.55497143,38.1468531 C8.3904,37.9358974 8.32868571,37.6853147 8.36982857,37.3904429 C8.49325714,36.6072261 8.67611429,35.4312354 8.91611429,33.8636364 C9.15497143,32.2960373 9.33782857,31.1200466 9.46125714,30.3356643 C9.58354286,29.5524476 9.76982857,28.3799534 10.0166857,26.8181818 C10.2635429,25.2575758 10.4486857,24.0862471 10.5732571,23.3018648 C10.6406857,22.7832168 10.9366857,22.5244755 11.4578286,22.5244755 L14.1549714,22.5244755 C15.9801143,22.5524476 17.6006857,22.4055944 19.0132571,22.0839161 C21.4166857,21.5384615 23.3869714,20.530303 24.9229714,19.0606061 C26.3229714,17.7307692 27.3881143,16.0081585 28.1138286,13.8951049 C28.4441143,12.9149184 28.6841143,11.9848485 28.8349714,11.1025641 C28.8486857,11.018648 28.8669714,10.9662005 28.8864,10.9452214 C28.9081143,10.9242424 28.9309714,10.9172494 28.9595429,10.9242424 C28.9858286,10.9312354 29.0269714,10.955711 29.0818286,10.997669 C30.1664,11.8240093 30.8395429,12.9568765 31.1001143,14.3997669" id="Fill-14" fill="#000000" mask="url(#mask-2)"></path>
        </g>
    </g>
</svg>