<?xml version="1.0" encoding="UTF-8"?>
<svg width="58px" height="40px" viewBox="0 0 58 40" version="1.1" xmlns="http://www.w3.org/2000/svg" xmlns:xlink="http://www.w3.org/1999/xlink">
    <!-- Generator: Sketch 54.1 (76490) - https://sketchapp.com -->
    <title>Group 2</title>
    <desc>Created with Sketch.</desc>
    <g id="Page-1" stroke="none" stroke-width="1" fill="none" fill-rule="evenodd">
        <g id="Group-2">
            <path d="M25.1982346,28.8668571 C25.1982346,30.6689143 24.0431855,32.3228571 22.1200782,33.5365714 C20.2009197,34.7502857 17.5373963,35.5073143 14.5915276,35.5073143 C11.6456588,35.5073143 9.00780319,34.7502857 7.11826138,33.5365714 C5.22279624,32.3228571 4.0874916,30.6689143 4.09144048,28.8668571 C4.0874916,27.0627429 5.22477068,25.4170286 7.12813359,24.2197714 C9.02754762,23.0204571 11.6713266,22.2798857 14.6171953,22.2798857 C17.5630641,22.2798857 20.2206642,23.0204571 22.1319248,24.2197714 C24.04516,25.4190857 25.1982346,27.0627429 25.1982346,28.8668571" id="Fill-19" fill="#646464"></path>
            <path d="M18.3388227,10.7944457 C18.3368482,8.99238857 19.4780762,7.34667429 21.3755158,6.14736 C23.2749298,4.95216 25.9226577,4.20541714 28.866552,4.20747429 C31.8064974,4.20541714 34.4700208,4.95216 36.379307,6.14736 C38.2925422,7.34873143 39.4436423,8.99238857 39.4436423,10.7944457 C39.4436423,12.5965029 38.2846444,14.2525029 36.3654859,15.4682743 C34.4483019,16.6778743 31.7887274,17.43696 28.8428587,17.43696 C25.893041,17.43696 23.2551854,16.6778743 21.3656436,15.4682743 C19.468204,14.2525029 18.3368482,12.5965029 18.3388227,10.7944457" id="Fill-21" fill="#646464"></path>
            <path d="M53.6473893,28.8668571 C53.6473893,30.6689143 52.4923403,32.3228571 50.5672585,33.5365714 C48.6540234,34.7502857 45.9845766,35.5073143 43.0406823,35.5073143 C40.096788,35.5073143 37.4569579,34.7502857 35.5654417,33.5365714 C33.6699765,32.3228571 32.5346719,30.6689143 32.5405952,28.8668571 C32.5346719,27.0627429 33.6758999,25.4170286 35.5792628,24.2197714 C37.4727535,23.0204571 40.1224558,22.2757714 43.0643756,22.2798857 C46.0122188,22.2757714 48.6698189,23.0204571 50.5810796,24.2197714 C52.4962892,25.4170286 53.6473893,27.0627429 53.6473893,28.8668571" id="Fill-23" fill="#646464"></path>
            <path d="M25.102869,21.2930743 C26.2895092,21.5255314 27.5334082,21.6469029 28.816796,21.6469029 C30.131775,21.6469029 31.407265,21.51936 32.6175985,21.2807314 C30.8149322,22.6343314 29.4999532,24.3438171 28.8740549,26.2651886 C28.2382843,24.3520457 26.9114587,22.6466743 25.102869,21.2930743" id="Fill-25" fill="#646464"></path>
            <path d="M37.2223941,6.12164571 C35.0465581,4.52941714 32.0750216,3.65101714 28.8547053,3.65101714 C25.6462357,3.65101714 22.6885203,4.52736 20.5265054,6.11958857 C19.4938717,6.88278857 17.756362,8.50176 17.7504387,10.7831314 C17.7524131,12.4802743 18.7396346,14.1547886 20.5324287,15.4960457 C22.6806225,17.1067886 25.6225424,17.9934171 28.8211398,17.9934171 C34.8747816,17.9893029 40.0063586,14.6834743 40.0300519,10.77696 C40.0221541,8.52233143 38.2668744,6.89307429 37.2223941,6.12164571" id="Fill-27" fill="#000000"></path>
            <path d="M22.9750119,24.1959086 C20.8011504,22.5995657 17.8315883,21.7191086 14.6092976,21.7191086 C11.396879,21.7191086 8.43916365,22.5954514 6.28109761,24.18768 C5.24648955,24.9529371 3.50897984,26.5801371 3.50503095,28.8512229 C3.50503095,30.5504229 4.49225238,32.2249371 6.28109761,33.5661943 C8.4371892,35.1769371 11.3810835,36.0635657 14.5698087,36.0635657 C20.6273994,36.0594514 25.7629253,32.7536229 25.7826697,28.8450514 C25.7787208,26.5945371 24.0214667,24.9673371 22.9750119,24.1959086" id="Fill-29" fill="#000000"></path>
            <path d="M51.4271284,24.1979657 C49.2473434,22.6016229 46.2738325,21.7232229 43.0574651,21.7232229 C39.8430721,21.7232229 36.8853567,22.5995657 34.7312396,24.1917943 C33.6966315,24.9549943 31.9591218,26.5760229 31.9551729,28.8512229 C31.9551729,30.5483657 32.9423944,32.2249371 34.7351885,33.5661943 C36.8853567,35.1769371 39.829251,36.0635657 43.0278485,36.0635657 C49.0814902,36.0594514 54.2110928,32.75568 54.2288628,28.8450514 C54.2229394,26.57808 52.4716086,24.9591086 51.4271284,24.1979657" id="Fill-31" fill="#000000"></path>
            <path d="M43.0270587,37.6066286 C39.5224226,37.6066286 36.2724897,36.6171429 33.8715672,34.8212571 C31.6799356,33.1796571 30.473551,31.0587429 30.473551,28.8493714 C30.4814488,25.8788571 32.6079237,23.8669714 33.875516,22.9330286 C36.278413,21.1577143 39.5382182,20.1805714 43.0566753,20.1805714 C46.5751325,20.1805714 49.8507332,21.1577143 52.2773235,22.9350857 C53.5567624,23.8669714 55.7010074,25.8768 55.7089051,28.8473143 C55.6891607,33.6754286 49.9988164,37.6025143 43.0270587,37.6066286 M28.8229168,19.5366857 C25.3163063,19.5366857 22.0643989,18.5472 19.6674253,16.7492571 C17.4777681,15.1097143 16.2694091,12.9908571 16.2694091,10.7814857 L16.2694091,10.7794286 C16.2753324,7.80685714 18.4037818,5.79497143 19.6733486,4.86102857 C22.0821689,3.08571429 25.341974,2.10857143 28.8545079,2.10857143 C32.3769139,2.10857143 35.6505402,3.08571429 38.0771304,4.86102857 C39.3565694,5.80525714 41.5008144,7.82537143 41.5106866,10.7773714 C41.4810699,15.6054857 35.7887512,19.5305143 28.8229168,19.5366857 M14.5694138,37.6066286 C11.07465,37.6066286 7.82471703,36.6171429 5.41984563,34.8212571 C3.23018851,33.1817143 2.02380393,31.0608 2.02380393,28.8493714 C2.02972725,25.8850286 4.15620221,23.8690286 5.42576896,22.9289143 C7.83064036,21.1536 11.09242,20.1764571 14.6089027,20.1764571 C18.1332832,20.1764571 21.4069094,21.1556571 23.8295508,22.9350857 C25.1089898,23.8772571 27.2571836,25.8973714 27.2650814,28.8473143 C27.2394136,33.6754286 21.5451204,37.6025143 14.5694138,37.6066286 M39.2598217,18.4340571 C41.9016263,16.4715429 43.5285672,13.7664 43.5285672,10.7814857 C43.5285672,4.77874286 36.9813147,-2.13162821e-14 28.8545079,-2.13162821e-14 C20.7296755,-2.13162821e-14 14.2495541,4.77874286 14.2495541,10.7814857 C14.2495541,13.7766857 15.8508272,16.4777143 18.4649896,18.4464 C17.2349117,18.2036571 15.943626,18.0699429 14.6069282,18.0699429 C6.48209589,18.0699429 -1.42108547e-14,22.8466286 -1.42108547e-14,28.8493714 C-1.42108547e-14,34.8500571 6.4505048,39.7152 14.5694138,39.7152 C21.4878616,39.7152 27.2927236,36.1913143 28.8663545,31.4393143 C30.4083944,36.1913143 36.1066365,39.7152 43.0191609,39.7152 C51.1439933,39.7152 57.7346835,34.8500571 57.7346835,28.8493714 C57.7346835,22.8466286 51.1815077,18.0699429 43.0566753,18.0699429 C41.7416964,18.0699429 40.4681807,18.1995429 39.2598217,18.4340571 Z" id="Fill-33" fill="#000000"></path>
        </g>
    </g>
</svg>