<?xml version="1.0" encoding="UTF-8"?>
<svg width="40px" height="40px" viewBox="0 0 40 40" version="1.1" xmlns="http://www.w3.org/2000/svg" xmlns:xlink="http://www.w3.org/1999/xlink">
    <!-- Generator: Sketch 52.5 (67469) - http://www.bohemiancoding.com/sketch -->
    <title>Artboard</title>
    <desc>Created with Sketch.</desc>
    <g id="Artboard" stroke="none" stroke-width="1" fill="none" fill-rule="evenodd">
        <g id="Group-9" fill="#000000">
            <g id="Group-8">
                <path d="M20,1.12577778 C9.59271111,1.12577778 1.12586667,9.59262222 1.12586667,19.9999111 C1.12586667,30.4072 9.59271111,38.8742222 20,38.8742222 C30.4072889,38.8742222 38.8741333,30.4072 38.8741333,19.9999111 C38.8741333,9.59262222 30.4072889,1.12577778 20,1.12577778 M20,39.9408889 C9.00462222,39.9408889 0.0592,30.9954667 0.0592,19.9999111 C0.0592,9.00453333 9.00462222,0.0591111111 20,0.0591111111 C30.9953778,0.0591111111 39.9408,9.00453333 39.9408,19.9999111 C39.9408,30.9954667 30.9953778,39.9408889 20,39.9408889" id="Fill-2"></path>
                <polygon id="Fill-4" points="16.7822044 20.6266489 14.1564267 16.7130489 13.08976 16.7130489 13.08976 24.2296711 14.1564267 24.2296711 14.1564267 18.6275378 16.7822044 22.5411378 19.4079822 18.6275378 19.4079822 24.2296711 20.4746489 24.2296711 20.4746489 16.7130489 19.4079822 16.7130489"></polygon>
                <path d="M25.7670222,21.26128 C24.7581333,21.26128 23.9373333,20.44048 23.9373333,19.4315911 C23.9373333,18.42288 24.7581333,17.60208 25.7670222,17.60208 C26.7759111,17.60208 27.5967111,18.42288 27.5967111,19.4315911 C27.5967111,20.44048 26.7759111,21.26128 25.7670222,21.26128 M25.7670222,16.7131911 C24.268,16.7131911 23.0484444,17.9325689 23.0484444,19.4315911 C23.0484444,20.9306133 24.268,22.1501689 25.7670222,22.1501689 C27.2660444,22.1501689 28.4856,20.9306133 28.4856,19.4315911 C28.4856,17.9325689 27.2660444,16.7131911 25.7670222,16.7131911" id="Fill-6"></path>
            </g>
        </g>
    </g>
</svg>