<?xml version="1.0" encoding="UTF-8"?>
<svg width="40px" height="40px" viewBox="0 0 40 40" version="1.1" xmlns="http://www.w3.org/2000/svg" xmlns:xlink="http://www.w3.org/1999/xlink">
    <!-- Generator: Sketch 52.5 (67469) - http://www.bohemiancoding.com/sketch -->
    <title>Artboard</title>
    <desc>Created with Sketch.</desc>
    <defs>
        <polygon id="path-1" points="0 0 40 0 40 40 0 40"></polygon>
    </defs>
    <g id="Artboard" stroke="none" stroke-width="1" fill="none" fill-rule="evenodd">
        <g id="Group-Copy">
            <mask id="mask-2" fill="white">
                <use xlink:href="#path-1"></use>
            </mask>
            <g id="Clip-2"></g>
            <path d="M40,20.810612 L38.3915157,22.4163246 C38.3647344,22.4430686 38.1295947,22.6516722 37.9351625,22.4564406 C37.841428,22.3628365 37.8408924,22.2430231 37.9014181,22.1285586 C38.0631771,21.8210021 38.0155064,21.7873046 37.7680472,21.5396547 L33.5001808,17.2782584 L35.144552,15.6372438 L39.4108116,19.8975703 C39.6588064,20.1457551 39.6930864,20.1928246 40,20.0323603 L40,20.810612 Z M35.5848364,25.4207507 L35.1954365,25.0318923 C35.3962961,24.6034527 35.2227534,24.3761283 35.0545669,24.2076408 L31.578891,20.7378682 C31.4107045,20.5693807 31.1835991,20.3955444 30.7540272,20.5961248 L30.3651629,20.2083361 C31.3019724,19.4263402 32.3335878,19.296899 33.2982498,19.6081997 L32.2334257,18.5443216 L33.1986234,17.5799313 L33.588559,17.9682548 C33.4867901,18.5651819 33.8365538,19.1000628 34.1316836,19.5156653 C34.2538063,19.6766645 34.384499,19.8745704 34.2297031,20.0553602 C34.5210836,20.2436383 34.8001446,20.4704278 35.0609944,20.7309148 C36.3963095,22.0643729 36.8805153,23.8722704 35.5848364,25.4207507 Z M30.5874476,25.19931 C30.4958556,25.1083802 30.4090842,25.0142412 30.3260622,24.9184975 C30.4621112,25.2715189 30.491035,25.6566332 30.380696,26.088817 C30.246254,26.5846516 29.9377335,27.027533 29.2998032,27.6635064 L28.9104032,27.2757177 C29.2328499,26.8055574 28.9784277,26.510838 28.650089,26.1818863 L27.636685,25.1704264 C27.3345921,24.8698234 26.9987547,24.6548012 26.5890009,24.9564741 L26.199601,24.5681505 C26.8375313,23.9311073 27.2799582,23.622481 27.7775546,23.4898306 C28.549927,23.2929944 29.1744667,23.5262025 29.7277682,24.0589439 C29.122511,22.9303451 29.109656,21.6493053 30.0630699,20.510009 L30.4530055,20.8994023 C30.2510746,21.3278419 30.425153,21.5551663 30.5928039,21.7220491 L34.0684798,25.1923566 C34.2366663,25.3603092 34.4643072,25.5341455 34.8933435,25.3330302 L35.2832791,25.7213538 C33.733178,27.0152307 31.9216915,26.533303 30.5874476,25.19931 Z M31.0438008,29.7538211 L29.1450073,31.6499739 C29.1192973,31.6777877 28.9366489,31.8318334 28.7416811,31.6387414 C28.6479465,31.5440675 28.6318778,31.4392308 28.6918679,31.3247663 C28.8530912,31.0177447 28.768998,31.0204191 28.5210032,30.7716995 L25.0051554,27.2628806 C24.7571606,27.0146959 24.7234162,26.9681612 24.4148958,27.1280906 C24.3008075,27.189067 24.1802916,27.1879973 24.0865571,27.0938582 C23.892125,26.9002313 24.0999478,26.6648837 24.1267291,26.6381397 L25.897508,24.8703582 L30.1653745,29.1322894 C30.4128336,29.3788695 30.446578,29.4270088 30.7550985,29.2654748 C30.8697224,29.2050332 30.9902382,29.2044983 31.0839727,29.2981025 C31.2794762,29.4922643 31.0711177,29.727077 31.0438008,29.7538211 Z M27.1337324,33.6589867 L26.7437968,33.2706631 C27.2199681,32.6608989 27.2676388,31.8767634 26.9114477,31.1589532 C26.8584207,31.011861 26.7898606,30.8647687 26.910912,30.7444205 C27.1262336,30.5299333 27.3072751,30.7508391 27.3340564,30.778118 L28.6763347,32.1185296 L27.1337324,33.6589867 Z M25.0603249,35.7289758 C25.0335436,35.755185 24.7984038,35.9632537 24.603436,35.7696268 C24.5102371,35.6754877 24.5097015,35.5546047 24.5696916,35.4412099 C24.7314506,35.1331185 24.6843155,35.0999559 24.4363208,34.8512362 L20.9210086,31.3408128 C20.6730138,31.0936978 20.6387338,31.0460934 20.3307489,31.2060228 C20.216125,31.2675341 20.0956092,31.2675341 20.0013391,31.1739299 C19.8069069,30.9797681 20.0152653,30.7438856 20.0420466,30.7171416 L21.8122899,28.9493601 L26.8311038,33.9606595 L25.0603249,35.7289758 Z M22.5589523,38.2268697 L22.1695524,37.8380113 C22.5257435,37.3753393 22.1631248,36.9731089 21.9070957,36.7195753 L19.0500676,33.8649158 C18.7951097,33.6108474 18.3923191,33.2492679 17.9300741,33.6038939 L17.5401385,33.2155704 C18.6670952,32.062902 20.4110928,31.9019028 22.2231149,33.5514756 C23.8733781,35.0512817 23.6725184,37.1143174 22.5589523,38.2268697 Z M20.7828171,40 L19.9986609,40 C20.0195503,39.9534654 20.0452604,39.9053261 20.0688279,39.8545124 C20.1572062,39.6881644 19.9622384,39.5191421 19.8620764,39.4196542 L16.3462285,35.9081609 C16.2455309,35.8081382 16.0784156,35.6139764 15.9107647,35.701162 C15.7297232,35.7878127 15.5824261,35.8953238 15.413704,35.728441 C15.2396256,35.5546047 15.3874583,35.3657917 15.5213648,35.2331412 L17.2385811,33.5177781 L22.2568594,38.5285426 L20.7828171,40 Z M11.6980677,36.0691601 C11.5320237,35.9006726 11.5320237,35.6872551 11.6370064,35.4850701 C11.9246374,34.937887 11.8405442,34.8779803 11.3991885,34.4372384 L8.54698108,31.5884626 L7.49822574,32.6352246 L6.80833969,31.9446933 L7.85495253,30.8979313 L5.14468592,28.1930385 C4.70493713,27.7528315 4.64441141,27.6693901 4.09593058,27.9534119 C3.8950709,28.0614578 3.67760682,28.0598532 3.51263407,27.8929703 C3.1666198,27.5479721 3.53620161,27.1339743 3.58387231,27.0847653 L6.95349429,23.7198294 C7.00116499,23.6727599 7.41681062,23.3047618 7.76336052,23.6481553 C7.93047577,23.8161079 7.93154702,24.0300603 7.82442186,24.2317104 C7.53786205,24.7788936 7.6219553,24.8382654 8.06331097,25.2784724 L14.3156711,31.523742 C14.7564911,31.9655537 14.8164812,32.04953 15.3654977,31.7622989 C15.5684998,31.6558576 15.7816789,31.6569274 15.9493298,31.8232753 C16.2942728,32.1688084 15.9268335,32.5854807 15.8791628,32.6336199 L12.5090052,35.9974861 C12.4607989,36.0445556 12.0435464,36.4125537 11.6980677,36.0691601 Z M3.23196615,16.1106134 L4.1398519,15.2039902 L4.50568433,15.5693139 C4.41087856,16.1293342 4.73868156,16.633192 5.01667135,17.0236551 C5.13665154,17.1809101 5.26841548,17.3761416 5.09219459,17.5526523 C4.90311868,17.7420002 4.72689779,17.6029311 4.70118775,17.5777917 L3.23196615,16.1106134 Z M5.96847842,13.3779067 L9.9792445,17.3825602 C10.2122417,17.6157683 10.2443793,17.6596285 10.5341528,17.5087921 C10.6407424,17.4515598 10.7548307,17.4515598 10.8426733,17.5403501 C11.0258573,17.7227445 10.8303539,17.9431154 10.8051795,17.9682548 L9.0204743,19.750478 C8.99583551,19.7750826 8.77515767,19.970849 8.59197365,19.7879197 C8.50359539,19.7001992 8.50359539,19.5868045 8.56037172,19.4792934 C8.7114182,19.1899228 8.66749689,19.1583649 8.43396403,18.9256917 L4.42373358,14.9199684 L5.96847842,13.3779067 Z M7.16078148,12.1877967 L8.63000308,13.6549751 C8.65517749,13.6795796 8.79336895,13.8560903 8.60429304,14.0449033 C8.42753652,14.221414 8.2320331,14.0892984 8.07455911,13.969485 C7.6840879,13.6924167 7.17952838,13.3645347 6.61819253,13.4592086 L6.2523601,13.0944199 L7.16078148,12.1877967 Z M7.58285462,11.7657756 L9.36755982,9.98355241 C9.39273424,9.95841301 9.61341207,9.76318147 9.79606047,9.94611075 C9.88443873,10.0338312 9.88443873,10.147226 9.82712677,10.2542022 C9.67661592,10.5435727 9.72053723,10.5756656 9.95407009,10.8083388 L13.2583457,14.1085541 C13.4913429,14.3412273 13.5229449,14.3850875 13.8127184,14.2342511 C13.9203792,14.1775537 14.0333963,14.1775537 14.1217745,14.2658091 C14.3049586,14.4482035 14.1089195,14.6685744 14.0842807,14.6937138 L12.2995755,16.475937 C12.2744011,16.5010764 12.0537233,16.696308 11.8705392,16.5139136 C11.7826966,16.4256582 11.7826966,16.3122635 11.8394729,16.2047524 C11.991055,15.9153818 11.9465981,15.8838239 11.7130653,15.6511507 L8.40932525,12.3514703 C8.17579239,12.1182622 8.14419047,12.0744019 7.85388128,12.2252384 C7.74675612,12.2819357 7.63320344,12.2819357 7.54482519,12.1936804 C7.36217678,12.011286 7.5576802,11.790915 7.58285462,11.7657756 Z M9.96638948,9.38555554 L11.7510947,7.60333231 C11.7762691,7.5781929 11.9969469,7.38296137 12.180131,7.56535576 C12.2679736,7.65361111 12.2679736,7.76700587 12.2117329,7.87398205 C12.0601508,8.16335263 12.1040721,8.19544549 12.3376049,8.42865357 L15.6418806,11.728334 C15.8748778,11.9610072 15.9064797,12.0048674 16.1967889,11.8534961 C16.3039141,11.7967987 16.4174668,11.7967987 16.5053094,11.8850541 C16.6884934,12.0679834 16.49299,12.2883543 16.4678156,12.3134937 L14.6831104,14.0957169 C14.657936,14.1208563 14.4372581,14.315553 14.2546097,14.1331586 C14.1662315,14.0454381 14.1662315,13.9320434 14.2230078,13.8245323 C14.3740543,13.5351617 14.330133,13.5036038 14.0971357,13.2709306 L12.5898847,11.7657756 L12.0349764,12.3199123 L11.6691439,11.9540537 L12.2240523,11.400452 L10.7928601,9.97071527 C10.5593273,9.73804207 10.5277253,9.69364695 10.2379518,9.84501825 C10.130291,9.90171563 10.0172739,9.90171563 9.92836005,9.81346028 C9.74571165,9.63106588 9.94121507,9.41069494 9.96638948,9.38555554 Z M12.3456393,7.00961448 L14.0103644,5.34720458 L18.7270853,10.057366 L17.0623602,11.7197759 C17.0371858,11.7454502 16.816508,11.9401468 16.633324,11.7577524 C16.5449457,11.6694971 16.5449457,11.5561023 16.601722,11.4491261 C16.7533041,11.1597556 16.7088472,11.1276627 16.47585,10.8949895 L13.1715743,7.59530909 C12.9380415,7.36263589 12.9064396,7.3177059 12.6161304,7.46961208 C12.5095408,7.52630946 12.3959882,7.52630946 12.3076099,7.4380541 C12.1249615,7.25512483 12.3204649,7.03528877 12.3456393,7.00961448 Z M15.7002638,3.66019015 L16.9798739,4.93802067 C17.0120114,4.96957865 17.1250285,5.09527566 16.9359525,5.28408863 C16.8288274,5.39106481 16.7340216,5.36004172 16.6081495,5.29692577 C15.933261,4.95085782 15.3028294,4.96316008 14.6595428,5.42904136 L14.294246,5.06425257 L15.7002638,3.66019015 Z M18.1973513,7.67714588 C18.0645161,7.80926146 17.9263247,7.7466804 17.787062,7.6707273 C17.4908609,7.48833291 17.1250285,7.36210101 16.7907979,7.55786743 L16.4003267,7.16686948 C16.5952945,6.83363866 16.4694225,6.46831499 16.2867741,6.17199096 C16.2107152,6.03399168 16.148047,5.89545752 16.2798109,5.76280706 C16.47585,5.56757552 16.6713534,5.825923 16.7217022,5.87620181 L18.0837987,7.236404 C18.1341475,7.2866828 18.3928548,7.48244922 18.1973513,7.67714588 Z M18.8026085,7.42521696 C18.7522597,7.2866828 18.6890558,7.14814864 18.8026085,7.03528877 C19.0040038,6.83363866 19.1743328,7.04117246 19.1995072,7.06631186 L20.460906,8.32595643 L19.0104313,9.77441397 L18.6451345,9.4090903 C19.0923821,8.83569795 19.136839,8.09916692 18.8026085,7.42521696 Z M23.328111,21.4273297 L19.3077036,17.4119787 L19.3318068,17.3873741 L21.9670858,18.6882045 L24.0190683,20.7373334 C25.7009333,22.037094 25.9965988,20.8122167 26.5091927,21.3251675 C26.8793101,21.6947702 26.3683231,22.1569073 26.2376304,22.2879531 L24.8803546,23.6412019 C24.7496619,23.7733175 24.2858099,24.2846636 23.9167637,23.9166656 C23.402563,23.4037147 24.6291461,23.1068558 23.328111,21.4273297 Z M20.1893437,27.3051362 C20.5460705,26.5440006 20.2354075,26.1369563 19.9354571,25.8400973 L13.7559421,19.6670366 C13.4570629,19.3696428 13.0510585,19.0599468 12.2899343,19.4167124 L11.5973701,18.7261811 C14.3478086,16.431007 17.567991,17.2910956 19.9418846,19.6622227 C22.3163138,22.0338847 23.1781358,25.2474493 20.880301,27.9956675 L20.1893437,27.3051362 Z M12.0055169,21.4150275 L18.1861032,27.5870184 C18.4844468,27.885482 18.8909868,28.195178 19.6526467,27.8389474 L20.3446752,28.5305484 C17.5931654,30.8246527 14.3751255,29.9645641 11.9996251,27.593437 C9.62573146,25.221775 8.76390953,22.0066058 11.0612086,19.2599922 L11.7532372,19.9510584 C11.3959748,20.7121939 11.7066377,21.1170988 12.0055169,21.4150275 Z M24.9258828,28.8825 C24.8112589,28.9964297 24.7121681,28.9632671 24.577726,28.8958721 C23.8589162,28.5273391 23.1888483,28.5407111 22.5037829,29.035476 L22.1149185,28.6476873 L23.6103858,27.1542998 L24.9730178,28.5128973 C25.005691,28.5471297 25.1272781,28.6808499 24.9258828,28.8825 Z M24.2349255,29.8270997 C24.1535104,29.6794726 24.0865571,29.5307757 24.2279623,29.390102 C24.4357852,29.1831031 24.6441436,29.4580319 24.6982418,29.5120549 L26.1476453,30.9594427 C26.2001366,31.011861 26.4754483,31.2199297 26.2665542,31.4279983 C26.1267558,31.5692069 25.9789231,31.5018119 25.8310904,31.42051 C25.5161424,31.227418 25.1272781,31.0931629 24.7716225,31.3006967 L24.3554413,30.8845593 C24.5632641,30.5304682 24.4293577,30.1421446 24.2349255,29.8270997 Z M24.350085,6.3474319 C24.3972201,6.30089726 24.8134014,5.93129455 25.15888,6.27682762 C25.3254596,6.44317559 25.3254596,6.6587326 25.220477,6.85984783 C24.9328459,7.40863565 25.0169392,7.46800743 25.4588305,7.90874931 L31.7122618,14.1524143 C32.1546887,14.5936911 32.2130719,14.6771325 32.7615528,14.392041 C32.9650906,14.283995 33.1782697,14.2861345 33.3464562,14.4514128 C33.6913992,14.7958761 33.3239599,15.2125483 33.2757536,15.2606876 L29.9045247,18.6261584 C29.8563184,18.6742976 29.4396015,19.0412259 29.0951941,18.6967626 C28.926472,18.5298798 28.9248651,18.3164623 29.0330615,18.1132075 C29.3196213,17.5670941 29.2360637,17.5066526 28.7941724,17.0653758 L23.2525877,11.5314978 L28.0817901,20.4447535 L27.736847,20.7886819 L17.8641921,15.8998703 C17.625303,15.7795221 17.3869495,15.6597088 17.1362766,15.5998021 C16.8513237,15.5281281 16.6595696,15.4329192 16.4447837,15.6222671 C16.2905234,15.7538478 15.9439735,16.0512416 15.6579494,15.7645454 C15.2889032,15.3949427 15.6477725,15.0381771 15.7902489,14.8958988 L18.813321,11.8770309 L23.7485772,14.26153 L23.7737517,14.239065 L21.2059615,9.48664803 L24.350085,6.3474319 Z M25.669867,5.03002019 L28.8113124,1.89133894 L37.7391234,10.8024551 L34.5955356,13.942741 C34.5478649,13.9903454 34.1295411,14.3583435 33.7845981,14.0138802 C33.6169472,13.8464624 33.6169472,13.6314403 33.724608,13.4303251 C34.0100965,12.8831419 33.9276102,12.8232352 33.4851833,12.3814236 L27.2306806,6.1372237 C26.789325,5.69755158 26.7304061,5.6130404 26.1819253,5.89920169 C25.9794588,6.00617787 25.7641372,6.00617787 25.5980932,5.83876015 C25.2520789,5.49483171 25.6221963,5.07655483 25.669867,5.03002019 Z M33.1048889,2.6802883 C33.4739351,2.31335999 33.8456594,2.80063651 33.9415364,2.89584531 L36.517361,5.46915743 C36.613238,5.56383135 37.1017287,5.93450383 36.7337538,6.30250191 C36.4830809,6.55336106 36.2211599,6.43140821 35.9570964,6.28966476 C35.3962961,5.94466657 34.7053389,5.70717944 34.0743716,6.07303799 L33.3346724,5.33490232 C33.7037186,4.70481259 33.4637582,4.0148162 33.1172083,3.45372611 C32.9763387,3.19323911 32.8558229,2.92954281 33.1048889,2.6802883 Z M37.9480175,16.3464959 C37.7605485,16.5337042 37.5527257,16.3935654 37.3856104,16.265194 C36.9694292,15.9720792 36.4321965,15.6238717 35.8360449,15.7249642 L35.4461093,15.3361058 L36.4118427,14.3701109 L37.9753344,15.9308934 C38.0026513,15.9587072 38.1499484,16.1453806 37.9480175,16.3464959 Z M37.8767793,5.82859741 C37.7809023,5.56650576 37.6609221,5.30387922 37.8751724,5.09046174 C38.2570736,4.70962652 38.5784491,5.10329888 38.6255842,5.15197304 L40,6.52233796 L40,8.54579249 L38.273678,10.2681091 L37.5832563,9.57757779 C38.4290095,8.49497881 38.5093534,7.10214888 37.8767793,5.82859741 Z M33.3025348,0 L34.4257422,1.12218017 C34.4857323,1.18155196 34.7015895,1.42117861 34.3432558,1.77633954 C34.1402536,1.97905941 33.9613546,1.91968763 33.7230011,1.80147895 C32.4476761,1.14250565 31.2548374,1.16764505 30.0405737,2.04645441 L29.3474739,1.35592314 L30.7058209,0 L0,0 L0,30.6631186 L2.45263059,28.2138989 C2.50030129,28.1678991 2.91701817,27.7977615 3.26196119,28.1422248 C3.42854082,28.3101774 3.43068332,28.5235949 3.32302254,28.7257799 C3.03646273,29.2745677 3.12002035,29.3334047 3.5629829,29.7752163 L9.815343,36.0183464 C10.2572343,36.4601581 10.3161531,36.5435995 10.864634,36.2579731 C11.0671005,36.150462 11.2818865,36.150462 11.4484661,36.3178797 C11.7939448,36.6639477 11.4248986,37.0795502 11.3777635,37.1266197 L8.50091726,40 L7.12650143,40 C7.13025081,39.9930465 7.13400019,39.9860931 7.13721394,39.9786048 C7.42216687,39.4335611 7.33914487,39.3731196 6.89832483,38.9323777 L0.644893477,32.6881778 C0.344943023,32.3886445 0.219070957,32.2581335 0,32.2907613 L0,40 L40,40 L40,0 L33.3025348,0 Z" id="Fill-1" fill="#000000" mask="url(#mask-2)"></path>
        </g>
    </g>
</svg>